<svg xmlns="http://www.w3.org/2000/svg" width="200" height="50" viewBox="0 0 1094 250" version="1.1"><path d="M 28.736 24.692 C 22.390 26.347, 22.877 39.455, 29.415 42.954 C 32.511 44.611, 32.554 45.512, 30.071 56.761 C 22.294 91.992, 22.294 156.008, 30.071 191.239 C 32.584 202.625, 32.541 203.647, 29.518 204.406 C 23.720 205.861, 22.102 216.256, 26.923 221.077 L 29.846 224 103.500 224 L 177.154 224 180.077 221.077 C 184.898 216.256, 183.280 205.861, 177.482 204.406 C 174.498 203.657, 174.498 203.658, 176.946 191.764 C 184.666 154.243, 184.659 93.146, 176.930 56.500 C 174.645 45.668, 174.576 44, 176.411 44 C 182.154 44, 184.895 32.405, 180.411 27.077 L 177.822 24 104.161 24.116 C 63.647 24.180, 29.706 24.439, 28.736 24.692 M 250.500 57.644 C 235.198 61.717, 228.500 71.263, 228.500 89 C 228.500 106.925, 231.603 111.734, 258.651 135.722 C 276.442 151.501, 276.011 174.543, 257.982 171.497 C 251.672 170.431, 249.569 167.193, 249.147 157.891 L 248.785 149.935 238.143 150.217 L 227.500 150.500 227.185 154.328 C 226.720 159.980, 228.764 171.616, 230.987 175.975 C 241.493 196.567, 280.413 195.626, 291 174.524 L 294.500 167.547 294.465 157.524 C 294.409 141.572, 289.617 132.394, 274.984 120.209 C 255.768 104.209, 251.061 97.843, 251.022 87.806 C 250.956 70.772, 270.850 71.704, 272.639 88.819 L 273.285 95 284.272 95 L 295.258 95 294.552 87.831 C 292.267 64.639, 273.230 51.594, 250.500 57.644 M 870.500 57.878 C 841.527 65.544, 840.305 102.493, 868.255 125.760 C 887.941 142.147, 892.118 147.812, 892.211 158.250 C 892.384 177.482, 871.500 177.247, 870.061 158 L 869.500 150.500 858.750 150.216 L 848 149.932 848 157.785 C 848 198.130, 907.822 204.585, 914.998 165.013 C 918.376 146.384, 912.217 134.272, 889.413 114.700 C 872.392 100.090, 866.658 87.584, 873.500 79.990 C 881.420 71.200, 892.988 76.695, 892.996 89.250 L 893 95 904 95 L 915 95 915 88.943 C 915 65.733, 894.610 51.499, 870.500 57.878 M 307.243 123.750 L 307.500 188.500 317.500 188.500 L 327.500 188.500 328 142 L 328.500 95.500 331.261 113 C 334.694 134.755, 342.586 181.838, 343.488 185.947 L 344.159 189 353.560 189 L 362.962 189 363.653 186.250 C 364.033 184.738, 367.557 164.168, 371.484 140.541 C 375.411 116.913, 378.875 98.013, 379.184 98.541 C 379.492 99.068, 379.648 116.150, 379.532 136.500 C 379.416 156.850, 379.540 176.987, 379.808 181.250 L 380.296 189 390.581 189 C 403.228 189, 401.730 198.037, 401.604 122.500 L 401.500 59.500 385.275 59.225 L 369.050 58.951 368.560 61.225 C 368.010 63.779, 364.326 86.915, 360.396 112.500 C 356.958 134.877, 354.261 150.743, 354.106 149.500 C 354.037 148.950, 352.887 141.300, 351.550 132.500 C 343.682 80.720, 340.972 63.256, 340.496 61.250 L 339.962 59 323.474 59 L 306.985 59 307.243 123.750 M 435 59.774 C 435 60.629, 432.503 74.667, 425.530 113 C 422.980 127.025, 419.105 148.400, 416.920 160.500 C 414.734 172.600, 412.672 183.978, 412.337 185.785 L 411.727 189.070 422.591 188.785 L 433.455 188.500 435.521 176.500 L 437.586 164.500 450.228 164.221 L 462.869 163.941 463.565 168.721 C 463.948 171.349, 464.767 176.875, 465.384 181 L 466.507 188.500 478.003 188.500 L 489.500 188.500 489.208 186 C 488.853 182.955, 483.445 152.309, 478.002 122.500 C 475.793 110.400, 472.435 91.603, 470.539 80.730 C 468.644 69.856, 466.820 60.519, 466.487 59.980 C 465.771 58.820, 435 58.619, 435 59.774 M 500.491 60.168 C 500.211 60.901, 500.098 90.075, 500.241 125 L 500.500 188.500 512 188.500 L 523.500 188.500 523.766 160.750 L 524.032 133 528.766 133.056 C 543.137 133.228, 544.276 135.388, 544.955 163.764 C 545.615 191.289, 544.370 189, 558.676 189 L 570.233 189 569.502 186.750 C 569.100 185.512, 568.431 174.375, 568.015 162 C 567.600 149.625, 566.807 138.124, 566.254 136.442 C 564.184 130.141, 561.877 126.978, 557.854 124.925 L 553.749 122.831 556.758 121.001 C 574.506 110.208, 571.273 69.426, 552.066 61.795 C 545.115 59.033, 501.451 57.656, 500.491 60.168 M 576.805 67.250 C 576.320 78.758, 575.489 78, 588.599 78 L 599.983 78 600.242 133.250 L 600.500 188.500 612 188.500 L 623.500 188.500 623.758 133.283 L 624.017 78.065 635.258 77.783 L 646.500 77.500 646.788 68.250 L 647.075 59 612.114 59 L 577.152 59 576.805 67.250 M 653.457 65.250 C 653.816 68.688, 654.971 78.475, 656.023 87 C 657.075 95.525, 659.329 115.325, 661.030 131 C 662.731 146.675, 664.893 166.025, 665.833 174 L 667.543 188.500 682.771 188.776 C 691.147 188.928, 698 188.754, 698 188.390 C 698 188.025, 699.332 177.101, 700.961 164.114 C 702.590 151.126, 704.623 133.750, 705.480 125.500 C 708.148 99.807, 708.114 99.684, 714.996 159.951 C 718.755 192.869, 716.364 189, 732.948 189 L 746.777 189 747.360 185.750 C 748.025 182.037, 749.795 166.911, 753.593 132.500 C 755.050 119.300, 757.459 97.700, 758.946 84.500 C 760.434 71.300, 761.478 60.163, 761.266 59.750 C 760.572 58.395, 741.981 58.866, 741.526 60.250 C 741.299 60.938, 739.724 75.900, 738.026 93.500 C 736.327 111.100, 734.287 131.350, 733.491 138.500 C 732.695 145.650, 731.999 152.400, 731.943 153.500 C 731.712 158.071, 730.904 151.992, 728.020 124 C 724.982 94.509, 722.458 71.255, 721.426 63.250 L 720.877 59 708.458 59 L 696.038 59 695.537 61.250 C 695.261 62.487, 693.432 79.025, 691.473 98 C 684.830 162.356, 685.236 161.152, 682.021 126 C 679.800 101.723, 676.260 67.509, 675.425 62.250 L 674.909 59 663.857 59 L 652.804 59 653.457 65.250 M 787 59.802 C 787 60.243, 785.844 66.880, 784.431 74.552 C 783.018 82.223, 780.134 98.175, 778.022 110 C 769.714 156.515, 765.853 177.671, 764.970 181.500 C 763.172 189.305, 762.784 189, 774.500 189 C 780.275 189, 785.021 188.887, 785.047 188.750 C 785.072 188.613, 786.090 183.100, 787.308 176.500 L 789.522 164.500 802.195 164.221 L 814.869 163.941 815.565 168.721 C 815.948 171.349, 816.766 176.875, 817.382 181 L 818.503 188.500 828.934 188.787 C 834.671 188.945, 839.880 188.876, 840.509 188.635 C 841.675 188.187, 840.822 182.777, 831.031 128.500 C 828.749 115.850, 825.108 95.444, 822.940 83.154 C 820.773 70.863, 818.748 60.401, 818.441 59.904 C 817.751 58.788, 787 58.688, 787 59.802 M 922.212 68.237 L 922.500 77.500 934 78 L 945.500 78.500 945.674 131.500 C 945.770 160.650, 945.883 185.527, 945.924 186.783 L 946 189.066 957.250 188.783 L 968.500 188.500 968.758 133.282 L 969.017 78.063 980.758 77.782 L 992.500 77.500 992.500 68.500 L 992.500 59.500 957.212 59.237 L 921.925 58.974 922.212 68.237 M 1003 124 L 1003 189 1034 189 L 1065 189 1065 179.500 L 1065 170 1045.500 170 L 1026 170 1026 150.500 L 1026 131 1041.536 131 L 1057.072 131 1056.786 121.250 L 1056.500 111.500 1041.250 111.224 L 1026 110.948 1026 94.474 L 1026 78 1045.500 78 L 1065 78 1065 68.500 L 1065 59 1034 59 L 1003 59 1003 124 M 524 96 L 524 114 529.532 114 C 541.948 114, 544 111.374, 544 95.489 L 544 83.846 541.077 80.923 C 538.397 78.243, 537.565 78, 531.077 78 L 524 78 524 96 M 108.611 85.569 C 80.770 91.826, 59.501 122.207, 64.460 148.637 L 65.149 152.310 73.824 143.827 C 85.725 132.191, 108.006 115, 111.187 115 C 114.918 115, 99.560 136.286, 84.781 151.598 C 73.450 163.338, 73.457 163.389, 86.250 162.753 C 120.670 161.042, 142.406 138.501, 142.424 104.500 C 142.430 91.568, 141.575 86.435, 139.267 85.549 C 135.298 84.026, 115.419 84.039, 108.611 85.569 M 800.085 93.755 C 799.019 102, 794.166 133.205, 792.543 142.250 L 792.050 145 801.869 145 L 811.688 145 808.920 126.750 C 805.005 100.937, 802.316 84.983, 801.793 84.460 C 801.546 84.213, 800.777 88.396, 800.085 93.755 M 447.593 97.751 C 445.483 112.632, 441.239 139.498, 440.484 142.750 L 439.962 145 449.828 145 L 459.695 145 457.861 132.750 C 453.753 105.303, 450.610 86.458, 450.023 85.751 C 449.681 85.338, 448.588 90.738, 447.593 97.751" stroke="none" fill="#74d574" fill-rule="evenodd"/><path d="" stroke="none" fill="#6cd474" fill-rule="evenodd"/></svg>